<?xml version="1.0" encoding="UTF-8"?>
<svg xmlns="http://www.w3.org/2000/svg" xmlns:xlink="http://www.w3.org/1999/xlink" width="540pt" height="416.250001pt" viewBox="0 0 540 416.250001" version="1.2">
<defs>
<clipPath id="clip1">
  <path d="M 187 390 L 323 390 L 323 396.472656 L 187 396.472656 Z M 187 390 "/>
</clipPath>
<clipPath id="clip2">
  <path d="M 97 106.742188 L 414 106.742188 L 414 317 L 97 317 Z M 97 106.742188 "/>
</clipPath>
<clipPath id="clip3">
  <path d="M 336 198 L 475 198 L 475 396.472656 L 336 396.472656 Z M 336 198 "/>
</clipPath>
<clipPath id="clip4">
  <path d="M 254 267 L 326 267 L 326 396.472656 L 254 396.472656 Z M 254 267 "/>
</clipPath>
<clipPath id="clip5">
  <path d="M 159.671875 58.375 L 341.386719 58.375 L 341.386719 98.5 L 159.671875 98.5 Z M 159.671875 58.375 "/>
</clipPath>
<clipPath id="clip6">
  <path d="M 173 58.375 L 294 58.375 L 294 98.5 L 173 98.5 Z M 173 58.375 "/>
</clipPath>
<clipPath id="clip7">
  <path d="M 276 58.375 L 300 58.375 L 300 98 L 276 98 Z M 276 58.375 "/>
</clipPath>
<clipPath id="clip8">
  <path d="M 284 58.375 L 330 58.375 L 330 98.5 L 284 98.5 Z M 284 58.375 "/>
</clipPath>
</defs>
<g id="surface1">
<path style=" stroke:none;fill-rule:nonzero;fill:rgb(79.998779%,79.60968%,79.219055%);fill-opacity:1;" d="M 299.203125 390.503906 L 211.332031 390.503906 L 219.308594 345.695312 L 291.195312 345.695312 Z M 299.203125 390.503906 "/>
<g clip-path="url(#clip1)" clip-rule="nonzero">
<path style=" stroke:none;fill-rule:nonzero;fill:rgb(90.19928%,89.7995%,89.7995%);fill-opacity:1;" d="M 322.734375 397.089844 L 187.800781 397.089844 L 187.800781 394.632812 C 187.800781 393.589844 188.199219 392.515625 189.007812 391.710938 C 189.808594 390.910156 190.859375 390.5 191.90625 390.5 L 318.613281 390.5 C 319.679688 390.5 320.726562 390.910156 321.523438 391.710938 C 322.328125 392.515625 322.734375 393.589844 322.734375 394.632812 Z M 322.734375 397.089844 "/>
</g>
<path style=" stroke:none;fill-rule:nonzero;fill:rgb(90.19928%,89.7995%,89.7995%);fill-opacity:1;" d="M 413.523438 316.738281 L 413.523438 338.015625 C 413.523438 342.257812 410.039062 345.695312 405.808594 345.695312 L 104.742188 345.695312 C 100.542969 345.695312 97.0625 342.257812 97.0625 338.015625 L 97.0625 316.738281 Z M 413.523438 316.738281 "/>
<g clip-path="url(#clip2)" clip-rule="nonzero">
<path style=" stroke:none;fill-rule:nonzero;fill:rgb(20.779419%,24.708557%,28.62854%);fill-opacity:1;" d="M 413.523438 316.738281 L 413.523438 114.691406 C 413.523438 110.46875 410.039062 106.96875 405.808594 106.96875 L 104.734375 106.96875 C 100.527344 106.96875 97.0625 110.46875 97.0625 114.691406 L 97.0625 316.738281 Z M 413.523438 316.738281 "/>
</g>
<path style=" stroke:none;fill-rule:nonzero;fill:rgb(100%,100%,100%);fill-opacity:1;" d="M 113.027344 122.972656 L 397.5 122.972656 L 397.5 300.761719 L 113.027344 300.761719 Z M 113.027344 122.972656 "/>
<path style=" stroke:none;fill-rule:nonzero;fill:rgb(96.859741%,48.239136%,33.329773%);fill-opacity:1;" d="M 124.851562 134.796875 L 385.675781 134.796875 L 385.675781 171.59375 L 124.851562 171.59375 Z M 124.851562 134.796875 "/>
<path style=" stroke:none;fill-rule:nonzero;fill:rgb(96.859741%,48.239136%,33.329773%);fill-opacity:1;" d="M 124.851562 267.28125 L 206.410156 267.28125 L 206.410156 274.058594 L 124.851562 274.058594 Z M 124.851562 267.28125 "/>
<path style=" stroke:none;fill-rule:nonzero;fill:rgb(96.859741%,48.239136%,33.329773%);fill-opacity:1;" d="M 124.851562 252.425781 L 206.410156 252.425781 L 206.410156 259.210938 L 124.851562 259.210938 Z M 124.851562 252.425781 "/>
<path style=" stroke:none;fill-rule:nonzero;fill:rgb(96.859741%,48.239136%,33.329773%);fill-opacity:1;" d="M 124.851562 237.550781 L 206.410156 237.550781 L 206.410156 244.347656 L 124.851562 244.347656 Z M 124.851562 237.550781 "/>
<path style=" stroke:none;fill-rule:nonzero;fill:rgb(96.859741%,48.239136%,33.329773%);fill-opacity:1;" d="M 124.851562 282.136719 L 206.410156 282.136719 L 206.410156 288.9375 L 124.851562 288.9375 Z M 124.851562 282.136719 "/>
<path style=" stroke:none;fill-rule:nonzero;fill:rgb(96.859741%,48.239136%,33.329773%);fill-opacity:1;" d="M 124.851562 179.65625 L 206.410156 179.65625 L 206.410156 229.496094 L 124.851562 229.496094 Z M 124.851562 179.65625 "/>
<path style=" stroke:none;fill-rule:nonzero;fill:rgb(96.859741%,48.239136%,33.329773%);fill-opacity:1;" d="M 214.488281 267.28125 L 296.046875 267.28125 L 296.046875 274.058594 L 214.488281 274.058594 Z M 214.488281 267.28125 "/>
<path style=" stroke:none;fill-rule:nonzero;fill:rgb(96.859741%,48.239136%,33.329773%);fill-opacity:1;" d="M 214.488281 252.425781 L 296.046875 252.425781 L 296.046875 259.210938 L 214.488281 259.210938 Z M 214.488281 252.425781 "/>
<path style=" stroke:none;fill-rule:nonzero;fill:rgb(96.859741%,48.239136%,33.329773%);fill-opacity:1;" d="M 214.488281 237.550781 L 296.046875 237.550781 L 296.046875 244.347656 L 214.488281 244.347656 Z M 214.488281 237.550781 "/>
<path style=" stroke:none;fill-rule:nonzero;fill:rgb(96.859741%,48.239136%,33.329773%);fill-opacity:1;" d="M 214.488281 282.136719 L 296.046875 282.136719 L 296.046875 288.9375 L 214.488281 288.9375 Z M 214.488281 282.136719 "/>
<path style=" stroke:none;fill-rule:nonzero;fill:rgb(96.859741%,48.239136%,33.329773%);fill-opacity:1;" d="M 214.488281 179.65625 L 296.046875 179.65625 L 296.046875 229.496094 L 214.488281 229.496094 Z M 214.488281 179.65625 "/>
<path style=" stroke:none;fill-rule:nonzero;fill:rgb(96.859741%,48.239136%,33.329773%);fill-opacity:1;" d="M 304.121094 267.28125 L 385.6875 267.28125 L 385.6875 274.058594 L 304.121094 274.058594 Z M 304.121094 267.28125 "/>
<path style=" stroke:none;fill-rule:nonzero;fill:rgb(96.859741%,48.239136%,33.329773%);fill-opacity:1;" d="M 304.121094 252.425781 L 385.6875 252.425781 L 385.6875 259.210938 L 304.121094 259.210938 Z M 304.121094 252.425781 "/>
<path style=" stroke:none;fill-rule:nonzero;fill:rgb(96.859741%,48.239136%,33.329773%);fill-opacity:1;" d="M 304.121094 237.550781 L 385.6875 237.550781 L 385.6875 244.347656 L 304.121094 244.347656 Z M 304.121094 237.550781 "/>
<path style=" stroke:none;fill-rule:nonzero;fill:rgb(96.859741%,48.239136%,33.329773%);fill-opacity:1;" d="M 304.121094 282.136719 L 385.6875 282.136719 L 385.6875 288.9375 L 304.121094 288.9375 Z M 304.121094 282.136719 "/>
<path style=" stroke:none;fill-rule:nonzero;fill:rgb(96.859741%,48.239136%,33.329773%);fill-opacity:1;" d="M 304.121094 179.65625 L 385.6875 179.65625 L 385.6875 229.496094 L 304.121094 229.496094 Z M 304.121094 179.65625 "/>
<g clip-path="url(#clip3)" clip-rule="nonzero">
<path style=" stroke:none;fill-rule:nonzero;fill:rgb(20.779419%,24.708557%,28.62854%);fill-opacity:1;" d="M 336.988281 205.6875 C 336.988281 201.582031 340.296875 198.242188 344.46875 198.242188 L 466.539062 198.242188 C 470.683594 198.242188 474.011719 201.582031 474.011719 205.6875 L 474.011719 389.660156 C 474.011719 393.746094 470.683594 397.089844 466.539062 397.089844 L 344.46875 397.089844 C 340.296875 397.089844 336.988281 393.746094 336.988281 389.660156 Z M 336.988281 205.6875 "/>
</g>
<path style=" stroke:none;fill-rule:nonzero;fill:rgb(27.839661%,30.979919%,34.899902%);fill-opacity:1;" d="M 397.949219 388.777344 C 396.128906 388.777344 394.636719 387.320312 394.636719 385.453125 L 394.636719 384.648438 C 394.636719 382.773438 396.128906 381.335938 397.949219 381.335938 L 413.046875 381.335938 C 414.867188 381.335938 416.378906 382.773438 416.378906 384.648438 L 416.378906 385.453125 C 416.378906 387.320312 414.867188 388.777344 413.046875 388.777344 Z M 397.949219 388.777344 "/>
<path style=" stroke:none;fill-rule:nonzero;fill:rgb(27.839661%,30.979919%,34.899902%);fill-opacity:1;" d="M 405.496094 211.386719 C 403.578125 211.386719 402.070312 209.859375 402.070312 207.957031 C 402.070312 206.054688 403.578125 204.503906 405.496094 204.503906 C 407.394531 204.503906 408.925781 206.054688 408.925781 207.957031 C 408.925781 209.855469 407.394531 211.386719 405.496094 211.386719 Z M 405.496094 211.386719 "/>
<path style=" stroke:none;fill-rule:nonzero;fill:rgb(20.779419%,24.708557%,28.62854%);fill-opacity:1;" d="M 405.511719 209.359375 C 404.714844 209.359375 404.105469 208.746094 404.105469 207.957031 C 404.105469 207.171875 404.714844 206.542969 405.511719 206.542969 C 406.300781 206.542969 406.902344 207.171875 406.902344 207.957031 C 406.902344 208.746094 406.300781 209.359375 405.511719 209.359375 Z M 405.511719 209.359375 "/>
<path style=" stroke:none;fill-rule:nonzero;fill:rgb(100%,100%,100%);fill-opacity:1;" d="M 344.746094 217.664062 L 466.242188 217.664062 L 466.242188 373.023438 L 344.746094 373.023438 Z M 344.746094 217.664062 "/>
<path style=" stroke:none;fill-rule:nonzero;fill:rgb(96.859741%,48.239136%,33.329773%);fill-opacity:1;" d="M 353.636719 344.8125 L 457.347656 344.8125 L 457.347656 350.855469 L 353.636719 350.855469 Z M 353.636719 344.8125 "/>
<path style=" stroke:none;fill-rule:nonzero;fill:rgb(96.859741%,48.239136%,33.329773%);fill-opacity:1;" d="M 353.636719 331.546875 L 457.347656 331.546875 L 457.347656 337.601562 L 353.636719 337.601562 Z M 353.636719 331.546875 "/>
<path style=" stroke:none;fill-rule:nonzero;fill:rgb(96.859741%,48.239136%,33.329773%);fill-opacity:1;" d="M 353.636719 318.265625 L 457.347656 318.265625 L 457.347656 324.34375 L 353.636719 324.34375 Z M 353.636719 318.265625 "/>
<path style=" stroke:none;fill-rule:nonzero;fill:rgb(96.859741%,48.239136%,33.329773%);fill-opacity:1;" d="M 353.636719 358.0625 L 457.347656 358.0625 L 457.347656 364.140625 L 353.636719 364.140625 Z M 353.636719 358.0625 "/>
<path style=" stroke:none;fill-rule:nonzero;fill:rgb(96.859741%,48.239136%,33.329773%);fill-opacity:1;" d="M 353.636719 226.558594 L 457.347656 226.558594 L 457.347656 259.410156 L 353.636719 259.410156 Z M 353.636719 226.558594 "/>
<path style=" stroke:none;fill-rule:nonzero;fill:rgb(96.859741%,48.239136%,33.329773%);fill-opacity:1;" d="M 353.636719 266.613281 L 401.1875 266.613281 L 401.1875 311.082031 L 353.636719 311.082031 Z M 353.636719 266.613281 "/>
<path style=" stroke:none;fill-rule:nonzero;fill:rgb(96.859741%,48.239136%,33.329773%);fill-opacity:1;" d="M 409.792969 266.613281 L 457.347656 266.613281 L 457.347656 311.082031 L 409.792969 311.082031 Z M 409.792969 266.613281 "/>
<g clip-path="url(#clip4)" clip-rule="nonzero">
<path style=" stroke:none;fill-rule:nonzero;fill:rgb(20.779419%,24.708557%,28.62854%);fill-opacity:1;" d="M 316.398438 267.28125 L 263.882812 267.28125 C 258.894531 267.28125 254.820312 271.355469 254.820312 276.351562 L 254.820312 388.03125 C 254.820312 393.023438 258.894531 397.089844 263.882812 397.089844 L 316.398438 397.089844 C 321.386719 397.089844 325.453125 393.023438 325.453125 388.03125 L 325.453125 276.351562 C 325.453125 271.355469 321.386719 267.28125 316.398438 267.28125 Z M 316.398438 267.28125 "/>
</g>
<path style=" stroke:none;fill-rule:nonzero;fill:rgb(100%,100%,100%);fill-opacity:1;" d="M 259.921875 286.917969 L 320.316406 286.917969 L 320.316406 377.476562 L 259.921875 377.476562 Z M 259.921875 286.917969 "/>
<path style=" stroke:none;fill-rule:nonzero;fill:rgb(96.859741%,48.239136%,33.329773%);fill-opacity:1;" d="M 264.582031 363.226562 L 315.691406 363.226562 L 315.691406 366.234375 L 264.582031 366.234375 Z M 264.582031 363.226562 "/>
<path style=" stroke:none;fill-rule:nonzero;fill:rgb(96.859741%,48.239136%,33.329773%);fill-opacity:1;" d="M 264.582031 356.617188 L 315.691406 356.617188 L 315.691406 359.625 L 264.582031 359.625 Z M 264.582031 356.617188 "/>
<path style=" stroke:none;fill-rule:nonzero;fill:rgb(96.859741%,48.239136%,33.329773%);fill-opacity:1;" d="M 264.582031 350.003906 L 315.691406 350.003906 L 315.691406 353.035156 L 264.582031 353.035156 Z M 264.582031 350.003906 "/>
<path style=" stroke:none;fill-rule:nonzero;fill:rgb(96.859741%,48.239136%,33.329773%);fill-opacity:1;" d="M 264.582031 369.8125 L 315.691406 369.8125 L 315.691406 372.835938 L 264.582031 372.835938 Z M 264.582031 369.8125 "/>
<path style=" stroke:none;fill-rule:nonzero;fill:rgb(96.859741%,48.239136%,33.329773%);fill-opacity:1;" d="M 264.582031 291.550781 L 315.691406 291.550781 L 315.691406 329.65625 L 264.582031 329.65625 Z M 264.582031 291.550781 "/>
<path style=" stroke:none;fill-rule:nonzero;fill:rgb(96.859741%,48.239136%,33.329773%);fill-opacity:1;" d="M 264.582031 332.722656 L 315.691406 332.722656 L 315.691406 346.96875 L 264.582031 346.96875 Z M 264.582031 332.722656 "/>
<path style=" stroke:none;fill-rule:nonzero;fill:rgb(27.839661%,30.979919%,34.899902%);fill-opacity:1;" d="M 284.539062 390.070312 C 283.199219 390.070312 282.113281 388.988281 282.113281 387.640625 L 282.113281 386.90625 C 282.113281 385.558594 283.199219 384.484375 284.539062 384.484375 L 295.734375 384.484375 C 297.0625 384.484375 298.15625 385.558594 298.15625 386.90625 L 298.15625 387.640625 C 298.15625 388.988281 297.066406 390.070312 295.734375 390.070312 Z M 284.539062 390.070312 "/>
<path style=" stroke:none;fill-rule:nonzero;fill:rgb(27.839661%,30.979919%,34.899902%);fill-opacity:1;" d="M 292.410156 277.097656 C 292.410156 278.367188 291.40625 279.375 290.144531 279.375 C 288.886719 279.375 287.871094 278.367188 287.871094 277.097656 C 287.871094 275.839844 288.886719 274.816406 290.144531 274.816406 C 291.40625 274.816406 292.410156 275.839844 292.410156 277.097656 Z M 292.410156 277.097656 "/>
<path style=" stroke:none;fill-rule:nonzero;fill:rgb(20.779419%,24.708557%,28.62854%);fill-opacity:1;" d="M 291.058594 277.097656 C 291.058594 277.597656 290.652344 278.003906 290.144531 278.003906 C 289.632812 278.003906 289.226562 277.597656 289.226562 277.097656 C 289.226562 276.589844 289.632812 276.175781 290.144531 276.175781 C 290.652344 276.175781 291.058594 276.589844 291.058594 277.097656 Z M 291.058594 277.097656 "/>
<g clip-path="url(#clip5)" clip-rule="nonzero">
<path style=" stroke:none;fill-rule:nonzero;fill:rgb(33.329773%,33.329773%,53.329468%);fill-opacity:1;" d="M 165.570312 85.15625 C 165.570312 83.710938 165.070312 82.667969 164.070312 82.054688 C 163.082031 81.441406 161.640625 81.132812 159.746094 81.132812 L 159.746094 75.757812 C 160.6875 75.757812 161.519531 75.691406 162.25 75.554688 C 162.992188 75.40625 163.613281 75.171875 164.113281 74.859375 C 164.617188 74.539062 164.988281 74.109375 165.230469 73.601562 C 165.488281 73.089844 165.601562 72.476562 165.570312 71.757812 L 165.570312 64.613281 C 165.570312 63.507812 165.714844 62.5625 166.003906 61.78125 C 166.292969 60.980469 166.816406 60.34375 167.550781 59.851562 C 168.308594 59.34375 169.332031 58.96875 170.625 58.726562 C 171.914062 58.488281 173.550781 58.375 175.539062 58.375 L 175.539062 63.429688 C 174.980469 63.441406 174.425781 63.496094 173.875 63.589844 C 173.390625 63.679688 172.984375 63.84375 172.625 64.082031 C 172.300781 64.308594 172.035156 64.621094 171.851562 65.027344 C 171.667969 65.429688 171.578125 65.957031 171.578125 66.601562 L 171.578125 73.316406 C 171.488281 76.125 169.710938 77.78125 166.253906 78.304688 L 166.253906 78.574219 C 168 78.828125 169.34375 79.375 170.257812 80.191406 C 171.175781 81.007812 171.625 82.132812 171.578125 83.539062 L 171.578125 90.253906 C 171.578125 90.898438 171.671875 91.421875 171.851562 91.828125 C 172.035156 92.234375 172.289062 92.546875 172.625 92.773438 C 172.976562 93.011719 173.390625 93.175781 173.878906 93.265625 C 174.378906 93.355469 174.929688 93.410156 175.539062 93.421875 L 175.539062 98.5 C 173.550781 98.5 171.914062 98.378906 170.625 98.140625 C 169.335938 97.902344 168.3125 97.527344 167.550781 97.019531 C 166.808594 96.523438 166.292969 95.878906 166.003906 95.085938 C 165.714844 94.292969 165.570312 93.339844 165.570312 92.234375 L 165.570312 85.15625 M 335.46875 92.234375 C 335.46875 93.339844 335.324219 94.292969 335.035156 95.085938 C 334.746094 95.878906 334.222656 96.523438 333.464844 97.019531 C 332.722656 97.527344 331.707031 97.902344 330.417969 98.140625 C 329.128906 98.382812 327.492188 98.5 325.492188 98.5 L 325.492188 93.421875 C 326.097656 93.40625 326.644531 93.355469 327.128906 93.265625 C 327.617188 93.175781 328.023438 93.011719 328.359375 92.773438 C 328.710938 92.546875 328.972656 92.234375 329.15625 91.828125 C 329.355469 91.421875 329.453125 90.898438 329.453125 90.253906 L 329.453125 83.539062 C 329.40625 82.128906 329.847656 81.015625 330.773438 80.191406 C 331.699219 79.371094 333.023438 78.828125 334.753906 78.574219 L 334.753906 78.304688 C 331.3125 77.78125 329.550781 76.117188 329.453125 73.316406 L 329.453125 66.601562 C 329.453125 65.957031 329.355469 65.429688 329.15625 65.027344 C 328.988281 64.632812 328.722656 64.320312 328.359375 64.082031 C 328.035156 63.84375 327.617188 63.679688 327.132812 63.589844 C 326.589844 63.492188 326.042969 63.441406 325.492188 63.429688 L 325.492188 58.375 C 327.480469 58.375 329.117188 58.496094 330.40625 58.734375 C 331.699219 58.972656 332.714844 59.347656 333.457031 59.859375 C 334.214844 60.351562 334.738281 60.996094 335.027344 61.792969 C 335.3125 62.570312 335.457031 63.511719 335.457031 64.621094 L 335.457031 71.765625 C 335.441406 72.484375 335.554688 73.097656 335.800781 73.609375 C 336.042969 74.117188 336.414062 74.535156 336.914062 74.867188 C 337.414062 75.179688 338.03125 75.410156 338.757812 75.5625 C 339.5 75.699219 340.34375 75.765625 341.285156 75.765625 L 341.285156 81.140625 C 339.386719 81.140625 337.9375 81.449219 336.9375 82.0625 C 335.953125 82.675781 335.457031 83.710938 335.457031 85.164062 L 335.457031 92.242188 "/>
</g>
<path style=" stroke:none;fill-rule:nonzero;fill:rgb(0%,0%,0%);fill-opacity:1;" d="M 185.269531 93.625 C 184.753906 93.625 184.296875 93.589844 183.917969 93.519531 C 183.53125 93.457031 183.195312 93.375 182.914062 93.261719 L 182.914062 90.859375 C 183.277344 90.957031 183.648438 91.027344 184.023438 91.070312 C 184.445312 91.132812 184.871094 91.164062 185.300781 91.160156 C 185.683594 91.160156 186.058594 91.113281 186.425781 91.011719 C 186.8125 90.921875 187.15625 90.753906 187.460938 90.5 C 187.773438 90.25 188.03125 89.90625 188.222656 89.457031 C 188.414062 89.011719 188.511719 88.457031 188.511719 87.777344 L 188.511719 65.820312 L 191.355469 65.820312 L 191.355469 87.484375 C 191.355469 88.527344 191.203125 89.445312 190.898438 90.214844 C 190.605469 90.984375 190.191406 91.621094 189.652344 92.125 C 189.125 92.632812 188.488281 93.007812 187.734375 93.25 C 187.003906 93.5 185.984375 93.625 185.082031 93.625 M 205.492188 85.5 L 205.371094 85.5 C 205.035156 85.949219 204.703125 86.339844 204.367188 86.671875 C 204.039062 86.988281 203.675781 87.253906 203.273438 87.46875 C 202.875 87.679688 202.4375 87.832031 201.949219 87.933594 C 201.464844 88.035156 200.894531 88.082031 200.261719 88.082031 C 199.5625 88.082031 198.917969 87.984375 198.328125 87.785156 C 197.75 87.601562 197.238281 87.304688 196.792969 86.898438 C 196.367188 86.496094 196.03125 85.976562 195.789062 85.371094 C 195.546875 84.753906 195.425781 84.019531 195.425781 83.179688 C 195.425781 81.539062 196.007812 80.277344 197.171875 79.394531 C 198.347656 78.515625 200.132812 78.035156 202.527344 77.953125 L 205.324219 77.847656 L 205.324219 76.804688 C 205.324219 76.132812 205.25 75.574219 205.097656 75.121094 C 204.953125 74.671875 204.742188 74.320312 204.457031 74.042969 C 204.183594 73.761719 203.839844 73.558594 203.425781 73.441406 C 203.015625 73.320312 202.550781 73.257812 202.023438 73.257812 C 201.21875 73.253906 200.433594 73.375 199.667969 73.621094 C 198.945312 73.859375 198.253906 74.148438 197.582031 74.492188 L 196.609375 72.433594 C 197.359375 72.03125 198.195312 71.691406 199.117188 71.410156 C 200.066406 71.125 201.035156 70.988281 202.023438 70.992188 C 203.058594 70.992188 203.949219 71.097656 204.699219 71.304688 C 205.460938 71.507812 206.085938 71.832031 206.570312 72.28125 C 207.058594 72.722656 207.4375 73.289062 207.683594 73.980469 C 207.925781 74.671875 208.046875 75.507812 208.046875 76.488281 L 208.046875 87.78125 L 206.050781 87.78125 Z M 200.976562 85.867188 C 201.59375 85.867188 202.167969 85.773438 202.695312 85.582031 C 203.222656 85.394531 203.671875 85.105469 204.0625 84.726562 C 204.449219 84.335938 204.746094 83.847656 204.960938 83.269531 C 205.183594 82.679688 205.296875 81.988281 205.296875 81.195312 L 205.296875 79.710938 L 203.121094 79.816406 C 202.207031 79.855469 201.441406 79.957031 200.824219 80.117188 C 200.207031 80.273438 199.707031 80.5 199.332031 80.792969 C 198.972656 81.0625 198.707031 81.410156 198.542969 81.828125 C 198.378906 82.230469 198.296875 82.683594 198.296875 83.195312 C 198.296875 84.113281 198.542969 84.800781 199.027344 85.222656 C 199.515625 85.652344 200.167969 85.867188 200.976562 85.867188 M 210.371094 71.292969 L 213.230469 71.292969 L 216.257812 80.46875 L 216.652344 81.753906 L 217.105469 83.34375 L 217.519531 84.871094 L 217.777344 85.964844 L 217.882812 85.964844 L 218.140625 84.871094 L 218.550781 83.34375 L 219.003906 81.753906 L 219.402344 80.46875 L 222.429688 71.292969 L 225.289062 71.292969 L 219.582031 87.78125 L 216.070312 87.78125 Z M 236.597656 85.5 L 236.476562 85.5 C 236.140625 85.949219 235.808594 86.339844 235.472656 86.671875 C 235.144531 86.988281 234.78125 87.253906 234.378906 87.46875 C 233.984375 87.679688 233.542969 87.832031 233.054688 87.933594 C 232.570312 88.035156 232 88.082031 231.367188 88.082031 C 230.667969 88.082031 230.023438 87.984375 229.4375 87.785156 C 228.855469 87.601562 228.34375 87.304688 227.898438 86.898438 C 227.472656 86.496094 227.140625 85.976562 226.894531 85.371094 C 226.652344 84.753906 226.53125 84.019531 226.53125 83.179688 C 226.53125 81.539062 227.113281 80.277344 228.277344 79.394531 C 229.457031 78.515625 231.238281 78.035156 233.632812 77.953125 L 236.429688 77.847656 L 236.429688 76.804688 C 236.429688 76.132812 236.355469 75.574219 236.203125 75.121094 C 236.0625 74.671875 235.847656 74.320312 235.566406 74.042969 C 235.289062 73.761719 234.945312 73.558594 234.53125 73.441406 C 234.125 73.320312 233.65625 73.257812 233.128906 73.257812 C 232.324219 73.253906 231.539062 73.375 230.773438 73.621094 C 230.050781 73.859375 229.359375 74.148438 228.6875 74.492188 L 227.714844 72.433594 C 228.464844 72.03125 229.300781 71.691406 230.226562 71.410156 C 231.171875 71.125 232.140625 70.988281 233.128906 70.992188 C 234.164062 70.992188 235.054688 71.097656 235.808594 71.304688 C 236.566406 71.507812 237.191406 71.832031 237.679688 72.28125 C 238.164062 72.722656 238.546875 73.289062 238.789062 73.980469 C 239.03125 74.671875 239.152344 75.507812 239.152344 76.488281 L 239.152344 87.78125 L 237.164062 87.78125 Z M 232.082031 85.875 C 232.699219 85.875 233.273438 85.777344 233.800781 85.589844 C 234.328125 85.398438 234.777344 85.113281 235.167969 84.734375 C 235.554688 84.34375 235.855469 83.855469 236.066406 83.277344 C 236.289062 82.6875 236.402344 81.996094 236.402344 81.203125 L 236.402344 79.714844 L 234.226562 79.824219 C 233.3125 79.863281 232.546875 79.964844 231.929688 80.121094 C 231.3125 80.28125 230.816406 80.507812 230.441406 80.796875 C 230.078125 81.070312 229.8125 81.417969 229.648438 81.835938 C 229.484375 82.234375 229.40625 82.691406 229.40625 83.199219 C 229.40625 84.121094 229.648438 84.804688 230.132812 85.226562 C 230.621094 85.660156 231.273438 85.875 232.082031 85.875 M 256.214844 81.910156 C 256.214844 82.871094 256.039062 83.75 255.683594 84.523438 C 255.335938 85.285156 254.839844 85.929688 254.191406 86.460938 C 253.542969 86.992188 252.75 87.398438 251.820312 87.675781 C 250.886719 87.945312 249.835938 88.082031 248.671875 88.082031 C 247.542969 88.082031 246.492188 87.992188 245.507812 87.8125 C 244.535156 87.640625 243.71875 87.386719 243.058594 87.046875 L 243.058594 84.371094 L 244.226562 84.855469 L 245.628906 85.257812 L 247.132812 85.558594 C 247.644531 85.628906 248.160156 85.664062 248.679688 85.664062 C 250.300781 85.664062 251.496094 85.367188 252.265625 84.765625 C 253.046875 84.164062 253.4375 83.300781 253.4375 82.179688 C 253.4375 81.640625 253.359375 81.167969 253.210938 80.769531 C 253.066406 80.367188 252.808594 80.003906 252.433594 79.671875 C 252.070312 79.332031 251.578125 79.003906 250.960938 78.695312 C 250.34375 78.375 249.558594 78.03125 248.617188 77.652344 C 247.722656 77.300781 246.929688 76.929688 246.261719 76.511719 C 245.609375 76.089844 245.054688 75.628906 244.617188 75.097656 C 244.1875 74.566406 243.867188 73.976562 243.660156 73.328125 C 243.457031 72.667969 243.355469 71.914062 243.355469 71.074219 C 243.355469 70.191406 243.519531 69.40625 243.84375 68.714844 C 244.167969 68.027344 244.625 67.445312 245.210938 66.976562 C 245.800781 66.492188 246.5 66.128906 247.308594 65.878906 C 248.121094 65.628906 249.035156 65.503906 250.015625 65.503906 C 251.222656 65.503906 252.308594 65.617188 253.273438 65.847656 C 254.234375 66.070312 255.09375 66.355469 255.84375 66.703125 L 254.824219 69.046875 C 254.171875 68.757812 253.414062 68.507812 252.570312 68.296875 C 251.726562 68.074219 250.863281 67.964844 249.988281 67.964844 C 248.75 67.964844 247.792969 68.253906 247.113281 68.824219 C 246.433594 69.382812 246.09375 70.144531 246.09375 71.105469 C 246.09375 71.667969 246.171875 72.171875 246.320312 72.59375 C 246.472656 73.003906 246.726562 73.378906 247.082031 73.71875 C 247.4375 74.050781 247.894531 74.363281 248.480469 74.664062 C 249.1875 75.007812 249.90625 75.320312 250.640625 75.597656 C 251.5625 75.957031 252.371094 76.320312 253.058594 76.707031 C 253.757812 77.089844 254.339844 77.511719 254.808594 77.992188 C 255.277344 78.472656 255.625 79.03125 255.855469 79.660156 C 256.101562 80.289062 256.230469 81.0625 256.230469 81.925781 M 266.519531 88.066406 C 265.496094 88.066406 264.539062 87.910156 263.648438 87.601562 C 262.75 87.28125 261.976562 86.78125 261.320312 86.097656 C 260.667969 85.410156 260.144531 84.53125 259.777344 83.472656 C 259.398438 82.398438 259.214844 81.113281 259.214844 79.617188 C 259.214844 78.046875 259.40625 76.714844 259.78125 75.625 C 260.167969 74.523438 260.695312 73.632812 261.363281 72.953125 C 262.042969 72.261719 262.828125 71.761719 263.738281 71.449219 C 264.648438 71.140625 265.609375 70.984375 266.640625 70.984375 C 267.421875 70.984375 268.191406 71.070312 268.953125 71.242188 C 269.714844 71.410156 270.347656 71.621094 270.855469 71.871094 L 270.042969 74.183594 C 269.789062 74.074219 269.53125 73.980469 269.265625 73.898438 C 268.976562 73.796875 268.683594 73.710938 268.386719 73.644531 C 268.089844 73.566406 267.789062 73.503906 267.488281 73.460938 C 267.191406 73.414062 266.914062 73.386719 266.652344 73.386719 C 265.058594 73.386719 263.898438 73.894531 263.167969 74.910156 C 262.4375 75.914062 262.074219 77.476562 262.074219 79.597656 C 262.074219 81.710938 262.4375 83.257812 263.167969 84.238281 C 263.898438 85.199219 265.035156 85.695312 266.53125 85.695312 C 267.34375 85.695312 268.089844 85.605469 268.75 85.425781 C 269.417969 85.234375 270.027344 85.023438 270.574219 84.761719 L 270.574219 87.195312 C 270.015625 87.492188 269.425781 87.710938 268.8125 87.855469 C 268.191406 88.007812 267.390625 88.082031 266.488281 88.082031 M 281.601562 70.992188 L 282.589844 71.035156 C 282.910156 71.050781 283.222656 71.085938 283.535156 71.140625 L 283.167969 73.664062 L 282.285156 73.542969 C 281.992188 73.503906 281.714844 73.484375 281.449219 73.484375 C 280.8125 73.484375 280.226562 73.613281 279.699219 73.875 C 279.171875 74.125 278.726562 74.492188 278.332031 74.972656 C 277.957031 75.441406 277.664062 76.011719 277.449219 76.683594 C 277.246094 77.34375 277.144531 78.078125 277.144531 78.890625 L 277.144531 87.78125 L 274.378906 87.78125 L 274.378906 71.292969 L 276.628906 71.292969 L 276.964844 74.3125 L 277.085938 74.3125 L 277.890625 73.066406 C 278.171875 72.675781 278.496094 72.328125 278.867188 72.023438 C 279.230469 71.710938 279.636719 71.464844 280.082031 71.285156 C 280.53125 71.097656 281.082031 71 281.652344 71 "/>
<g clip-path="url(#clip6)" clip-rule="nonzero">
<path style="fill:none;stroke-width:2.129;stroke-linecap:butt;stroke-linejoin:miter;stroke:rgb(0%,0%,0%);stroke-opacity:1;stroke-miterlimit:4;" d="M 41.403885 48.924103 C 40.76946 48.924103 40.207128 48.880295 39.740922 48.792679 C 39.265103 48.714798 38.851765 48.612579 38.505715 48.471419 L 38.505715 45.477866 C 38.952697 45.599555 39.40929 45.687172 39.870691 45.740715 C 40.389766 45.818596 40.913647 45.857536 41.442335 45.852669 C 41.913348 45.852669 42.374748 45.794258 42.826536 45.667701 C 43.302355 45.555747 43.725305 45.346442 44.100193 45.03005 C 44.484693 44.718526 44.801906 44.29018 45.037412 43.73041 C 45.272918 43.175508 45.393075 42.484313 45.393075 41.637357 L 45.393075 14.276768 L 48.892026 14.276768 L 48.892026 41.272289 C 48.892026 42.571929 48.704582 43.715807 48.329695 44.674718 C 47.969226 45.633628 47.459763 46.427042 46.7965 47.054958 C 46.147656 47.687741 45.364237 48.155027 44.43663 48.456817 C 43.537861 48.768341 42.283429 48.924103 41.173185 48.924103 M 66.285853 38.799566 L 66.136859 38.799566 C 65.723522 39.359336 65.31499 39.846092 64.901653 40.259836 C 64.497927 40.654108 64.050946 40.985103 63.555902 41.252819 C 63.065664 41.515668 62.527364 41.705503 61.926582 41.832059 C 61.330607 41.958616 60.628894 42.017027 59.850281 42.017027 C 58.989962 42.017027 58.196931 41.895338 57.471187 41.647092 C 56.759861 41.418316 56.130242 41.048381 55.582329 40.542154 C 55.058448 40.040795 54.64511 39.393409 54.347123 38.638936 C 54.049135 37.869861 53.900141 36.954758 53.900141 35.908232 C 53.900141 33.863854 54.616273 32.29163 56.048536 31.19156 C 57.495218 30.096358 59.691675 29.497647 62.637908 29.395428 L 66.079184 29.264004 L 66.079184 27.964364 C 66.079184 27.127143 65.987866 26.431081 65.800422 25.866443 C 65.62259 25.306673 65.363053 24.868592 65.012196 24.522995 C 64.675759 24.17253 64.252809 23.919417 63.743346 23.77339 C 63.238689 23.622495 62.666745 23.544614 62.017901 23.544614 C 61.027813 23.539746 60.061757 23.690641 59.119731 23.997298 C 58.230574 24.294219 57.379868 24.654419 56.553192 25.082765 L 55.356436 22.517558 C 56.279236 22.016198 57.307774 21.59272 58.44205 21.242255 C 59.609969 20.886923 60.801919 20.716558 62.017901 20.721426 C 63.291558 20.721426 64.387384 20.85285 65.310184 21.110831 C 66.247403 21.363945 67.016404 21.767952 67.612379 22.327723 C 68.21316 22.877758 68.679367 23.583555 68.982161 24.445114 C 69.280148 25.306673 69.429142 26.348332 69.429142 27.570091 L 69.429142 41.642224 L 66.973147 41.642224 Z M 60.729826 39.257117 C 61.489213 39.257117 62.195733 39.140295 62.844577 38.901785 C 63.493421 38.668141 64.04614 38.307942 64.526765 37.835788 C 65.002584 37.349031 65.367859 36.740585 65.632203 36.020186 C 65.906159 35.285183 66.045541 34.423624 66.045541 33.435508 L 66.045541 31.585833 L 63.368458 31.717257 C 62.243795 31.765933 61.30177 31.89249 60.542382 32.09206 C 59.782994 32.286762 59.167794 32.569081 58.706393 32.934149 C 58.264218 33.270011 57.937393 33.703224 57.73553 34.224054 C 57.533668 34.725413 57.432737 35.290051 57.432737 35.927702 C 57.432737 37.07158 57.73553 37.928271 58.331506 38.453969 C 58.932287 38.989401 59.734931 39.257117 60.729826 39.257117 M 72.288862 21.096228 L 75.807039 21.096228 L 79.531885 32.530141 L 80.017316 34.13157 L 80.574841 36.112669 L 81.084304 38.015888 L 81.401517 39.378806 L 81.531285 39.378806 L 81.848498 38.015888 L 82.353155 36.112669 L 82.91068 34.13157 L 83.400918 32.530141 L 87.125763 21.096228 L 90.64394 21.096228 L 83.622005 41.642224 L 79.301184 41.642224 Z M 104.55804 38.799566 L 104.409046 38.799566 C 103.995709 39.359336 103.587177 39.846092 103.17384 40.259836 C 102.770114 40.654108 102.323133 40.985103 101.828089 41.252819 C 101.342657 41.515668 100.799551 41.705503 100.198769 41.832059 C 99.602794 41.958616 98.901081 42.017027 98.122468 42.017027 C 97.262149 42.017027 96.469118 41.895338 95.74818 41.647092 C 95.032048 41.418316 94.402429 41.048381 93.854516 40.542154 C 93.330635 40.040795 92.922103 39.393409 92.619309 38.638936 C 92.321322 37.869861 92.172328 36.954758 92.172328 35.908232 C 92.172328 33.863854 92.88846 32.29163 94.320723 31.19156 C 95.772211 30.096358 97.963862 29.497647 100.910095 29.395428 L 104.351371 29.264004 L 104.351371 27.964364 C 104.351371 27.127143 104.260053 26.431081 104.072609 25.866443 C 103.899584 25.306673 103.63524 24.868592 103.28919 24.522995 C 102.947946 24.17253 102.524995 23.919417 102.015533 23.77339 C 101.515682 23.622495 100.938932 23.544614 100.290088 23.544614 C 99.3 23.539746 98.333943 23.690641 97.391918 23.997298 C 96.502761 24.294219 95.652055 24.654419 94.825379 25.082765 L 93.628622 22.517558 C 94.551423 22.016198 95.579961 21.59272 96.719043 21.242255 C 97.882156 20.886923 99.074106 20.716558 100.290088 20.721426 C 101.563745 20.721426 102.659571 20.85285 103.587177 21.110831 C 104.51959 21.363945 105.288591 21.767952 105.889372 22.327723 C 106.485347 22.877758 106.95636 23.583555 107.254348 24.445114 C 107.552335 25.306673 107.701329 26.348332 107.701329 27.570091 L 107.701329 41.642224 L 105.254947 41.642224 Z M 99.002013 39.266852 C 99.7614 39.266852 100.467919 39.145163 101.116764 38.91152 C 101.765608 38.673009 102.318327 38.317677 102.798952 37.845523 C 103.274771 37.358766 103.644852 36.75032 103.90439 36.029921 C 104.178346 35.294918 104.317728 34.433359 104.317728 33.445243 L 104.317728 31.590701 L 101.640645 31.726992 C 100.515982 31.775668 99.573957 31.902225 98.814569 32.096927 C 98.055181 32.296498 97.444787 32.578816 96.983387 32.939016 C 96.536405 33.279746 96.20958 33.712959 96.007717 34.233789 C 95.805855 34.730281 95.70973 35.299786 95.70973 35.932569 C 95.70973 37.081315 96.007717 37.933139 96.603693 38.458836 C 97.204474 38.999136 98.007118 39.266852 99.002013 39.266852 M 128.695039 34.326273 C 128.695039 35.523694 128.478758 36.618896 128.041389 37.582674 C 127.613632 38.53185 127.003238 39.334998 126.2054 39.996987 C 125.407563 40.658976 124.431893 41.165203 123.288005 41.5108 C 122.139311 41.846662 120.846429 42.017027 119.414166 42.017027 C 118.025159 42.017027 116.732277 41.905073 115.521102 41.681165 C 114.324345 41.466992 113.319838 41.1506 112.507581 40.727122 L 112.507581 37.392839 L 113.944651 37.996417 L 115.670095 38.497777 L 117.520503 38.872579 C 118.150122 38.960195 118.784547 39.004003 119.423778 39.004003 C 121.418373 39.004003 122.889086 38.634068 123.835918 37.884463 C 124.797169 37.134858 125.277794 36.059126 125.277794 34.662135 C 125.277794 33.990411 125.181669 33.401435 124.999031 32.904943 C 124.8212 32.403584 124.503987 31.9509 124.042587 31.537157 C 123.595605 31.113679 122.990018 30.704804 122.23063 30.320266 C 121.471242 29.921125 120.505185 29.49278 119.346878 29.020626 C 118.246247 28.582545 117.270577 28.120126 116.448708 27.599296 C 115.646064 27.073599 114.963576 26.499227 114.425276 25.837238 C 113.896588 25.175249 113.502476 24.440246 113.247744 23.63223 C 112.997819 22.809612 112.872857 21.870171 112.872857 20.823645 C 112.872857 19.723575 113.074719 18.745194 113.473638 17.883635 C 113.872557 17.026943 114.434889 16.301676 115.155826 15.717568 C 115.881571 15.11399 116.74189 14.661306 117.736784 14.349782 C 118.736484 14.038258 119.861147 13.882496 121.067517 13.882496 C 122.552649 13.882496 123.888787 14.023655 125.075931 14.310841 C 126.258269 14.588293 127.315645 14.943625 128.238445 15.376838 L 126.984013 18.297378 C 126.181369 17.937178 125.248956 17.625654 124.210806 17.362805 C 123.172655 17.085354 122.110473 16.949062 121.033873 16.949062 C 119.510291 16.949062 118.332759 17.309262 117.496471 18.019927 C 116.660183 18.715989 116.242039 19.665164 116.242039 20.862585 C 116.242039 21.563515 116.338165 22.191431 116.520802 22.717128 C 116.708246 23.228222 117.020652 23.695509 117.458021 24.118987 C 117.89539 24.53273 118.457722 24.922135 119.17866 25.296938 C 120.048591 25.725284 120.932942 26.114689 121.836517 26.460286 C 122.970793 26.908102 123.965687 27.360786 124.811587 27.842675 C 125.671906 28.319696 126.388038 28.845393 126.964788 29.444104 C 127.541539 30.042815 127.969295 30.738877 128.252864 31.522555 C 128.555658 32.306233 128.714264 33.270011 128.714264 34.345743 M 141.373933 41.997557 C 140.114695 41.997557 138.937163 41.802854 137.841337 41.418316 C 136.735899 41.019176 135.784261 40.396127 134.976811 39.544303 C 134.174167 38.687612 133.530129 37.592409 133.078341 36.273299 C 132.612135 34.934718 132.386241 33.333289 132.386241 31.469011 C 132.386241 29.51225 132.621747 27.85241 133.083147 26.494359 C 133.558966 25.121705 134.20781 24.0119 135.02968 23.164944 C 135.865968 22.303385 136.832024 21.680336 137.951881 21.290931 C 139.071738 20.906393 140.254076 20.711691 141.522926 20.711691 C 142.484177 20.711691 143.431009 20.818777 144.368228 21.03295 C 145.305447 21.242255 146.08406 21.505104 146.708873 21.816628 L 145.709172 24.698227 C 145.396766 24.561935 145.079553 24.445114 144.752728 24.342895 C 144.397065 24.216338 144.036596 24.109252 143.671321 24.026503 C 143.306046 23.929152 142.935965 23.851271 142.565883 23.797727 C 142.200608 23.739317 141.859364 23.705244 141.537345 23.705244 C 139.576394 23.705244 138.148937 24.338027 137.250168 25.603594 C 136.351399 26.854559 135.904418 28.801585 135.904418 31.444674 C 135.904418 34.078027 136.351399 36.005583 137.250168 37.227342 C 138.148937 38.424763 139.547557 39.042944 141.388351 39.042944 C 142.388052 39.042944 143.306046 38.93099 144.118303 38.707082 C 144.940172 38.468571 145.689947 38.205723 146.362823 37.879596 L 146.362823 40.912089 C 145.675528 41.282024 144.949784 41.554608 144.195203 41.734708 C 143.431009 41.924543 142.445727 42.017027 141.335483 42.017027 M 159.930873 20.721426 L 161.146855 20.774969 C 161.540967 20.794439 161.925467 20.838247 162.309968 20.906393 L 161.85818 24.050841 L 160.771967 23.899946 C 160.411498 23.851271 160.070254 23.826933 159.743429 23.826933 C 158.96001 23.826933 158.239072 23.987563 157.590228 24.313689 C 156.941384 24.625214 156.393471 25.082765 155.90804 25.681476 C 155.446639 26.265583 155.08617 26.976248 154.821827 27.813469 C 154.571901 28.636088 154.446939 29.55119 154.446939 30.563644 L 154.446939 41.642224 L 151.044112 41.642224 L 151.044112 21.096228 L 153.812514 21.096228 L 154.225851 24.858857 L 154.374845 24.858857 L 155.364933 23.306103 C 155.710983 22.819347 156.109902 22.386133 156.566496 22.006463 C 157.013478 21.617058 157.513328 21.310401 158.061241 21.086493 C 158.61396 20.85285 159.291641 20.731161 159.993354 20.731161 " transform="matrix(0.812743,0,0,0.802506,151.618795,54.363123)"/>
</g>
<path style=" stroke:none;fill-rule:nonzero;fill:rgb(0%,0%,0%);fill-opacity:1;" d="M 289.386719 87.78125 L 286.617188 87.78125 L 286.617188 71.292969 L 289.382812 71.292969 L 289.382812 87.78125 M 286.855469 65.519531 C 287.171875 65.246094 287.554688 65.113281 288.011719 65.113281 C 288.234375 65.113281 288.441406 65.148438 288.636719 65.21875 C 288.832031 65.273438 289.003906 65.375 289.152344 65.519531 C 289.304688 65.660156 289.421875 65.839844 289.5 66.058594 C 289.59375 66.269531 289.636719 66.523438 289.636719 66.824219 C 289.636719 67.40625 289.476562 67.839844 289.152344 68.132812 C 288.835938 68.414062 288.457031 68.550781 288.007812 68.550781 C 287.554688 68.550781 287.15625 68.339844 286.839844 68.0625 C 286.539062 67.78125 286.394531 67.34375 286.394531 66.789062 C 286.394531 66.222656 286.546875 65.789062 286.851562 65.519531 Z M 286.855469 65.519531 "/>
<g clip-path="url(#clip7)" clip-rule="nonzero">
<path style="fill:none;stroke-width:2.129;stroke-linecap:square;stroke-linejoin:miter;stroke:rgb(0%,0%,0%);stroke-opacity:1;stroke-miterlimit:4;" d="M 169.509733 41.642224 L 166.102101 41.642224 L 166.102101 21.096228 L 169.504927 21.096228 L 169.504927 41.642224 M 166.395282 13.901966 C 166.784588 13.561236 167.255601 13.395739 167.817933 13.395739 C 168.091889 13.395739 168.34662 13.439547 168.586933 13.527163 C 168.827246 13.595309 169.038721 13.721866 169.221358 13.901966 C 169.408802 14.077198 169.55299 14.301106 169.649115 14.57369 C 169.764465 14.836539 169.817334 15.15293 169.817334 15.527733 C 169.817334 16.253 169.620277 16.7933 169.221358 17.158368 C 168.832052 17.508832 168.365845 17.679197 167.813126 17.679197 C 167.255601 17.679197 166.765363 17.416349 166.376057 17.070751 C 166.005976 16.720287 165.828144 16.175119 165.828144 15.483925 C 165.828144 14.778128 166.015588 14.237828 166.390476 13.901966 Z M 166.395282 13.901966 " transform="matrix(0.812743,0,0,0.802506,151.618795,54.363123)"/>
</g>
<path style=" stroke:none;fill-rule:nonzero;fill:rgb(0%,0%,0%);fill-opacity:1;" d="M 302.082031 88.082031 C 301.484375 88.082031 300.941406 88.019531 300.453125 87.886719 C 299.96875 87.757812 299.527344 87.585938 299.132812 87.378906 C 298.746094 87.15625 298.402344 86.902344 298.097656 86.609375 C 297.808594 86.328125 297.542969 86.023438 297.304688 85.695312 L 297.125 85.695312 L 297.214844 86.671875 L 297.277344 87.472656 L 297.304688 88.121094 L 297.304688 95.164062 L 294.539062 95.164062 L 294.539062 71.292969 L 296.789062 71.292969 L 297.183594 73.515625 L 297.304688 73.515625 C 297.539062 73.164062 297.800781 72.839844 298.097656 72.539062 C 298.398438 72.222656 298.738281 71.960938 299.117188 71.742188 C 299.511719 71.511719 299.953125 71.332031 300.4375 71.203125 C 300.925781 71.0625 301.472656 70.992188 302.082031 70.992188 C 303.035156 70.992188 303.902344 71.171875 304.683594 71.535156 C 305.484375 71.90625 306.148438 72.449219 306.675781 73.15625 C 307.230469 73.867188 307.664062 74.761719 307.972656 75.8125 C 308.285156 76.867188 308.429688 78.105469 308.429688 79.507812 C 308.429688 80.921875 308.277344 82.160156 307.972656 83.230469 C 307.671875 84.292969 307.238281 85.183594 306.675781 85.902344 C 306.125 86.625 305.453125 87.171875 304.683594 87.542969 C 303.902344 87.902344 302.84375 88.082031 301.890625 88.082031 M 301.550781 73.257812 C 300.777344 73.257812 300.125 73.375 299.585938 73.605469 C 299.054688 73.835938 298.625 74.183594 298.292969 74.65625 C 297.96875 75.125 297.726562 75.710938 297.5625 76.421875 C 297.410156 77.121094 297.324219 77.949219 297.304688 78.898438 L 297.304688 79.515625 C 297.304688 80.527344 297.371094 81.425781 297.503906 82.21875 C 297.644531 83 297.878906 83.660156 298.203125 84.199219 C 298.527344 84.726562 298.96875 85.132812 299.523438 85.417969 C 300.074219 85.6875 300.757812 85.820312 301.578125 85.820312 C 302.945312 85.820312 303.953125 85.277344 304.589844 84.183594 C 305.238281 83.09375 305.5625 81.527344 305.5625 79.484375 C 305.5625 77.402344 305.238281 75.84375 304.589844 74.8125 C 303.949219 73.78125 302.9375 73.269531 301.546875 73.269531 M 317.65625 85.84375 C 317.839844 85.84375 318.042969 85.828125 318.265625 85.816406 L 318.933594 85.738281 L 319.503906 85.632812 L 319.914062 85.527344 L 319.914062 87.601562 C 319.78125 87.660156 319.613281 87.722656 319.410156 87.78125 C 319.207031 87.839844 318.984375 87.890625 318.742188 87.929688 C 318.492188 87.980469 318.238281 88.015625 317.980469 88.035156 C 317.722656 88.066406 317.464844 88.082031 317.207031 88.082031 C 316.609375 88.085938 316.027344 88.007812 315.457031 87.839844 C 314.917969 87.683594 314.453125 87.40625 314.058594 87.015625 C 313.671875 86.625 313.367188 86.101562 313.144531 85.4375 C 312.921875 84.765625 312.808594 83.925781 312.808594 82.914062 L 312.808594 73.347656 L 310.453125 73.347656 L 310.453125 72.132812 L 312.808594 70.960938 L 313.996094 67.507812 L 315.59375 67.507812 L 315.59375 71.292969 L 319.792969 71.292969 L 319.792969 73.347656 L 315.59375 73.347656 L 315.59375 82.914062 C 315.59375 83.878906 315.75 84.617188 316.066406 85.105469 C 316.390625 85.589844 316.917969 85.84375 317.648438 85.84375 "/>
<g clip-path="url(#clip8)" clip-rule="nonzero">
<path style="fill:none;stroke-width:2.129;stroke-linecap:butt;stroke-linejoin:miter;stroke:rgb(0%,0%,0%);stroke-opacity:1;stroke-miterlimit:4;" d="M 185.130053 42.017027 C 184.394697 42.017027 183.726628 41.939146 183.125846 41.773649 C 182.529871 41.613019 181.986764 41.398846 181.501333 41.140865 C 181.025514 40.863414 180.602564 40.547022 180.227676 40.181954 C 179.872013 39.83149 179.545188 39.45182 179.252007 39.042944 L 179.030919 39.042944 L 179.141463 40.259836 L 179.218363 41.257687 L 179.252007 42.065702 L 179.252007 50.841924 L 175.84918 50.841924 L 175.84918 21.096228 L 178.617582 21.096228 L 179.103013 23.865873 L 179.252007 23.865873 C 179.540382 23.427792 179.862401 23.023785 180.227676 22.648982 C 180.597758 22.254709 181.015901 21.928582 181.482108 21.655998 C 181.967539 21.368812 182.510646 21.144904 183.106621 20.984274 C 183.707403 20.809042 184.380278 20.721426 185.130053 20.721426 C 186.302779 20.721426 187.369767 20.945334 188.331017 21.398017 C 189.316299 21.860436 190.133362 22.537028 190.782206 23.418057 C 191.464694 24.303954 191.998188 25.418627 192.377882 26.728002 C 192.762382 28.042245 192.940213 29.585263 192.940213 31.33272 C 192.940213 33.094778 192.75277 34.637797 192.377882 35.97151 C 192.0078 37.295488 191.474306 38.405293 190.782206 39.300925 C 190.104525 40.201425 189.277849 40.882884 188.331017 41.345303 C 187.369767 41.793119 186.067273 42.017027 184.894547 42.017027 M 184.476403 23.544614 C 183.524765 23.544614 182.722121 23.690641 182.058858 23.977827 C 181.405208 24.265014 180.87652 24.698227 180.467989 25.287203 C 180.06907 25.871311 179.771082 26.601445 179.56922 27.487342 C 179.381776 28.358637 179.276038 29.390561 179.252007 30.573379 L 179.252007 31.342455 C 179.252007 32.603154 179.333713 33.722694 179.497126 34.71081 C 179.670151 35.684324 179.958526 36.506942 180.357445 37.178666 C 180.756364 37.835788 181.29947 38.342015 181.981958 38.697347 C 182.65964 39.033209 183.500734 39.198706 184.510047 39.198706 C 186.192235 39.198706 187.432248 38.522114 188.215667 37.159196 C 189.013505 35.801145 189.412424 33.849251 189.412424 31.303514 C 189.412424 28.709102 189.013505 26.766943 188.215667 25.481905 C 187.427442 24.196868 186.182623 23.559217 184.471597 23.559217 M 204.292581 39.227912 C 204.518475 39.227912 204.7684 39.208441 205.042357 39.193839 L 205.864226 39.096487 L 206.565939 38.965063 L 207.070595 38.833639 L 207.070595 41.418316 C 206.907182 41.49133 206.700514 41.569211 206.450589 41.642224 C 206.200663 41.715238 205.926707 41.778516 205.628719 41.827192 C 205.321119 41.89047 205.008713 41.934278 204.6915 41.958616 C 204.374288 41.997557 204.057075 42.017027 203.739862 42.017027 C 203.004506 42.021894 202.288374 41.924543 201.586661 41.715238 C 200.923398 41.520535 200.351454 41.174938 199.866023 40.688181 C 199.390204 40.201425 199.015316 39.549171 198.74136 38.721685 C 198.467403 37.884463 198.328022 36.837937 198.328022 35.577237 L 198.328022 23.656568 L 195.429852 23.656568 L 195.429852 22.142755 L 198.328022 20.682485 L 199.789123 16.379557 L 201.75488 16.379557 L 201.75488 21.096228 L 206.921601 21.096228 L 206.921601 23.656568 L 201.75488 23.656568 L 201.75488 35.577237 C 201.75488 36.779526 201.94713 37.699496 202.336437 38.307942 C 202.735356 38.91152 203.3842 39.227912 204.282969 39.227912 " transform="matrix(0.812743,0,0,0.802506,151.618795,54.363123)"/>
</g>
</g>
</svg>
